mtllib chunk.mtl
o MyModel
v 1.000000 0.010000 7.000000
v 1.000000 -0.190000 8.000000
v 1.000000 -0.190000 7.000000
v 1.000000 0.010000 8.000000
v 0.000000 0.010000 7.000000
v 0.000000 -0.190000 7.000000
v 0.000000 -0.190000 8.000000
v 0.000000 0.010000 8.000000
vn 1.000000 0.000000 0.000000
vn -1.000000 -0.000000 0.000000
vn 0.000000 0.000000 1.000000
vn 0.000000 0.000000 -1.000000
vn -0.000000 1.000000 0.000000
vn 0.000000 -1.000000 0.000000
vt 0.333333 0.746667
vt 0.400000 0.733333
vt 0.333333 0.733333
vt 0.400000 0.746667
vt 0.333333 0.786667
vt 0.333333 0.800000
vt 0.400000 0.800000
vt 0.400000 0.786667
s 0
usemtl Material
f 1/1/1 2/2/1 3/3/1
f 1/1/1 4/4/1 2/2/1
f 5/5/2 6/6/2 7/7/2
f 5/5/2 7/7/2 8/8/2
f 8/1/3 7/3/3 2/2/3
f 8/1/3 2/2/3 4/4/3
f 5/1/4 3/2/4 6/3/4
f 5/1/4 1/4/4 3/2/4
f 5/6/5 8/3/5 4/2/5
f 5/6/5 4/2/5 1/7/5
f 6/6/6 2/2/6 7/3/6
f 6/6/6 3/7/6 2/2/6
